<svg width="40" height="41" viewBox="0 0 40 41" fill="none" xmlns="http://www.w3.org/2000/svg">
<g clip-path="url(#clip0_31_1964)">
<path d="M9.54532 36.9217L13.575 41C18.4606 35.5502 24.7132 33.1922 29.3016 35.1411C30.2645 35.5502 31.5721 36.3201 32.8202 37.8841L37.0996 33.8779C35.3165 32.0734 34.5795 30.2928 34.2467 29.1499C32.8083 24.2054 35.1263 18.3826 39.9881 14.1479L36.208 10.2019C34.8291 11.5132 31.4413 15.0983 30.1694 20.897C29.1352 25.613 30.003 29.4868 30.5498 31.3395C28.7429 30.7741 24.7251 29.8116 19.8395 30.9545C14.2645 32.2658 10.8291 35.5622 9.53343 36.9457L9.54532 36.9217Z" fill="#10828C"/>
<path d="M30.2288 4.03022L26.1634 0C21.3373 5.49795 15.1085 7.91608 10.4963 6.01526C9.52154 5.61825 8.21397 4.86033 6.94205 3.30839L2.69836 7.36268C4.49331 9.15522 5.25409 10.9237 5.59881 12.0666C7.08469 16.9871 4.83804 22.8459 0.0118866 27.1288L3.82764 31.0387C5.19465 29.7154 8.5468 26.0942 9.75929 20.2835C10.7459 15.5675 9.84249 11.6937 9.27192 9.84096C11.0906 10.3823 15.1085 11.3087 19.9822 10.1177C25.5453 8.74618 28.9569 5.41373 30.2288 4.03022Z" fill="#10828C"/>
</g>
<defs>
<clipPath id="clip0_31_1964">
<rect width="40" height="41" fill="white"/>
</clipPath>
</defs>
</svg>
